Coordinates
version=1
nRows=65
nColumns=12
inDegrees=yes

Units are S.I. units (second, meters, Newtons, ...)
Angles are in degrees

endheader
time	SC_y	SC_z	SC_x	AC_y	AC_z	AC_x	GH_y	GH_z	GH_yy	EL_x	PS_y
       0.0              -44.41         -3.122          68.49          33.06          8.131          14.93         -115.6          45.55         -100.2          39.43          151.0
   0.04371              -44.41         -3.116          68.48          33.07          8.129          14.92         -115.6          45.55         -100.2          39.43          151.0
   0.08742              -44.41         -3.109          68.48          33.07          8.126          14.92         -115.6          45.56         -100.1          39.43          151.0
    0.1311               -44.4         -3.103          68.48          33.08          8.124          14.91         -115.5          45.56         -100.1          39.43          150.9
    0.1748              -44.39         -3.096          68.47          33.08          8.122          14.91         -115.5          45.56         -100.1          39.43          150.9
    0.2185              -44.39         -3.088          68.47          33.08          8.119           14.9         -115.5          45.57         -100.0          39.42          150.9
    0.2622              -44.38          -3.08          68.46          33.09          8.117           14.9         -115.4          45.57         -99.98          39.42          150.9
     0.306              -44.38         -3.072          68.46          33.09          8.114          14.89         -115.4          45.58         -99.93          39.42          150.9
    0.3497              -44.37         -3.063          68.45           33.1          8.111          14.89         -115.4          45.58         -99.88          39.42          150.8
    0.3934              -44.36         -3.053          68.44          33.11          8.107          14.88         -115.3          45.59         -99.82          39.42          150.8
    0.4371              -44.35         -3.042          68.44          33.11          8.104          14.87         -115.3           45.6         -99.76          39.42          150.8
    0.4808              -44.34         -3.031          68.43          33.12            8.1          14.86         -115.2           45.6          -99.7          39.42          150.7
    0.5245              -44.33         -3.019          68.42          33.13          8.096          14.85         -115.2          45.61         -99.63          39.41          150.7
    0.5682              -44.32         -3.005          68.41          33.13          8.091          14.84         -115.1          45.62         -99.56          39.41          150.7
    0.6119              -44.31         -2.991           68.4          33.14          8.086          14.83         -115.0          45.63         -99.48          39.41          150.6
    0.6556               -44.3         -2.976          68.39          33.15          8.081          14.82         -115.0          45.64          -99.4          39.41          150.6
    0.6993              -44.28         -2.959          68.38          33.16          8.075          14.81         -114.9          45.65          -99.3           39.4          150.6
     0.743              -44.27          -2.94          68.37          33.17          8.069           14.8         -114.8          45.66          -99.2           39.4          150.5
    0.7867              -44.25          -2.92          68.36          33.19          8.062          14.78         -114.7          45.68         -99.09           39.4          150.5
    0.8305              -44.24         -2.898          68.34           33.2          8.055          14.77         -114.6          45.69         -98.97          39.39          150.4
    0.8742              -44.22         -2.874          68.33          33.21          8.047          14.75         -114.5           45.7         -98.83          39.39          150.3
    0.9179               -44.2         -2.848          68.31          33.23          8.038          14.73         -114.4          45.72         -98.69          39.38          150.3
    0.9616              -44.17         -2.818          68.29          33.25          8.028          14.71         -114.3          45.74         -98.52          39.38          150.2
     1.005              -44.15         -2.786          68.27          33.27          8.017          14.69         -114.2          45.76         -98.34          39.37          150.1
     1.049              -44.12          -2.75          68.25          33.29          8.004          14.66         -114.0          45.78         -98.14          39.37          150.0
     1.093              -44.09         -2.709          68.22          33.31          7.991          14.63         -113.8          45.81         -97.92          39.36          149.9
     1.136              -44.05         -2.664          68.19          33.34          7.975           14.6         -113.6          45.84         -97.67          39.35          149.8
      1.18              -44.01         -2.613          68.16          33.37          7.958          14.56         -113.4          45.87         -97.39          39.34          149.6
     1.224              -43.96         -2.556          68.13           33.4          7.939          14.52         -113.1          45.91         -97.07          39.33          149.5
     1.268              -43.91         -2.491          68.08          33.44          7.917          14.47         -112.9          45.95         -96.71          39.32          149.3
     1.311              -43.85         -2.416          68.04          33.49          7.891          14.42         -112.5          45.99          -96.3          39.31          149.1
     1.355              -43.78         -2.331          67.98          33.54          7.862          14.36         -112.2          46.05         -95.83          39.29          148.9
     1.399              -43.71         -2.232          67.92           33.6          7.829          14.29         -111.7          46.11         -95.28          39.28          148.6
     1.442              -43.61         -2.118          67.85          33.67           7.79           14.2         -111.2          46.18         -94.65          39.26          148.3
     1.486              -43.51         -1.984          67.76          33.75          7.745          14.11         -110.7          46.27         -93.91          39.24          148.0
      1.53              -43.38         -1.826          67.66          33.84          7.691          13.99         -110.0          46.37         -93.03          39.21          147.5
     1.573              -43.23         -1.638          67.54          33.96          7.627          13.86         -109.2          46.49         -91.99          39.18          147.0
     1.617              -43.05         -1.413          67.39          34.09          7.551           13.7         -108.2          46.63         -90.75          39.14          146.4
     1.661              -42.83         -1.141          67.22          34.26          7.458           13.5         -107.0           46.8         -89.24          39.09          145.7
     1.705              -42.57         -0.808          67.01          34.46          7.346          13.26         -105.5          47.01          -87.4          39.03          144.8
     1.748              -42.24        -0.3975          66.74           34.7          7.206          12.96         -103.7          47.27         -85.13          38.96          143.7
     1.792              -41.83         0.1144          66.42          35.01          7.033          12.59         -101.5           47.6         -82.29          38.88          142.4
     1.836              -41.32         0.7593           66.0           35.4          6.814          12.13         -98.71          48.01         -78.72          38.76          140.7
     1.879              -40.66          1.579          65.48          35.89          6.536          11.54         -95.14          48.53         -74.19          38.62          138.5
     1.923              -39.83          2.628          64.81          36.52           6.18          10.78         -90.57          49.19         -68.38          38.44          135.7
     1.967              -38.75          3.975          63.95          37.33          5.723           9.81         -84.71          50.04         -60.93          38.21          132.1
     2.011              -37.38          5.695          62.85          38.37          5.139           8.57         -77.21          51.13         -51.41          37.92          127.5
     2.054              -35.66          7.858          61.46          39.67          4.406          7.011         -67.79          52.51         -39.44          37.55          121.8
     2.098              -33.55          10.49          59.78          41.25          3.511           5.11         -56.32          54.18         -24.85          37.09          114.8
     2.142              -31.12          13.55          57.82          43.09          2.475          2.907         -43.01          56.11          -7.94          36.57          106.6
     2.185              -28.48          16.86          55.71          45.08          1.353         0.5218          -28.6          58.21          10.37           36.0          97.84
     2.229              -25.84          20.16          53.59          47.07         0.2302         -1.864          -14.2           60.3          28.68          35.43          89.04
     2.273               -23.4          23.22          51.64          48.91        -0.8062         -4.066        -0.8921          62.24          45.58          34.91          80.91
     2.317               -21.3          25.85          49.95          50.49           -1.7         -5.967          10.59          63.91          60.17          34.46           73.9
      2.36              -19.57          28.02          48.57          51.79         -2.434         -7.527          20.01          65.28          72.14          34.09          68.14
     2.404               -18.2          29.74          47.47          52.83         -3.018         -8.767           27.5          66.37          81.66          33.79          63.57
     2.448              -17.12          31.08          46.61          53.64         -3.475         -9.738          33.36          67.22          89.11          33.56          59.98
     2.491              -16.29          32.13          45.93          54.27         -3.831         -10.49          37.93          67.89          94.92          33.38          57.19
     2.535              -15.63          32.95          45.41          54.76         -4.109         -11.09           41.5          68.41          99.46          33.24          55.01
     2.579              -15.12           33.6           45.0          55.15         -4.328         -11.55          44.31          68.82          103.0          33.13           53.3
     2.622              -14.71          34.11          44.67          55.46         -4.501         -11.92          46.54          69.14          105.9          33.04          51.93
     2.666              -14.38          34.52          44.41          55.71         -4.641         -12.22          48.33           69.4          108.1          32.97          50.84
      2.71              -14.12          34.85          44.19          55.91         -4.753         -12.46          49.78          69.61          110.0          32.91          49.96
     2.754               -13.9          35.12          44.02          56.07         -4.846         -12.65          50.96          69.79          111.5          32.87          49.23
     2.797              -13.72          35.35          43.88          56.21         -4.922         -12.81          51.94          69.93          112.7          32.83          48.63
